<svg data-name="レイヤー 1" xmlns="http://www.w3.org/2000/svg" viewBox="0 0 205.67 55.99"><path d="M1.27 18.7C-.58 16.5 2.83 11 4.65 9.29 10.31 3.22 19.4.92 27.92.1c6.34-.28 13.13-.1 18.73 2.8a14.52 14.52 0 016.41 5.6l.15.53c.06.25.13.49.19.74v.06c0 .2.09.4.13.61.09.47.17.93.25 1.4v.05a2.19 2.19 0 00-.26.41c-.08-.49-.17-1-.27-1.47-.93-3.28-3.86-5.91-7.17-7.46A26.62 26.62 0 0034.83.67a47.17 47.17 0 00-9.58.21C17.42 2 9.51 4.37 4.51 10.14 2.99 11.69-.04 16.7 1.42 18.5a2.09 2.09 0 00-.08.23zm21.13 9.74a36.66 36.66 0 01-5.91-.89 38.75 38.75 0 01-7.82-1.95l1.26.11c.57.05 1.13.09 1.7.12 2.7.68 5.55 1 8.25 1.52a32.91 32.91 0 007.49 0 46.8 46.8 0 005-.25c2.57-.72 5.2-1.33 7.71-2.23h.19a1.84 1.84 0 00.47-.07c.52-.13 1-.27 1.55-.44l.46-.17a2.55 2.55 0 001-.05c.22-.05.45-.1.67-.17h.15a38.31 38.31 0 01-7.47 2.9.67.67 0 00-.28-.06.66.66 0 00-.55.29l-1.32.33a15.54 15.54 0 01-3.32.76c-3.06 0-6.12.27-9.18.25zM1 18a6.29 6.29 0 00.12-1.37c0-.11-.08-.37-.26-.23s-.26.07-.24-.06a.39.39 0 01.56-.14c.4.43.15 1.06.11 1.56a4.14 4.14 0 00.12.86 2.63 2.63 0 00-.15.74A3.57 3.57 0 011 18zm13.83 12.71a16.78 16.78 0 01-7.85-3.14l-.72-.67c-.16-.17-.32-.35-.47-.53a.29.29 0 000-.09.54.54 0 00-.27-.31 5.86 5.86 0 01-.54-.94 2.3 2.3 0 00.34.12 9.16 9.16 0 003.88 3.31c3 1.2 6.79 2.75 9.79.87a.29.29 0 01.35 0c.21.19 0 .39-.21.51a6.5 6.5 0 01-3.54.87c-.24.03-.5.02-.76 0zm-.33-.2A8.14 8.14 0 019.28 28a9.65 9.65 0 01-2.34-1.35 6.29 6.29 0 01-1.11-1.37c.45.09.91.13 1.37.18h.41a4.06 4.06 0 00.41.25 6.83 6.83 0 002.46 1.45c.8.34 1.51.82 2.27 1.21a11.22 11.22 0 003.59.55 10.72 10.72 0 002.49-.37c.66-.19 1.63-.66 2.14 0 .37.18.14.44.07.71a1.28 1.28 0 01-.39.61h-.22a.73.73 0 00-.56 0 1.2 1.2 0 00-.36.22 1.3 1.3 0 00-.28.34.75.75 0 00-.07.12.76.76 0 01-.74-.37c-1.13.1-2.26.35-3.4.34a4.35 4.35 0 01-.51-.01zm12.76.64a16.56 16.56 0 01-1.72-.15.36.36 0 00-.32-.22h-.45a.9.9 0 00-.29-.21 2.3 2.3 0 00-.6-.16 5.77 5.77 0 00-.83 0 2.32 2.32 0 00-.64 0 1.39 1.39 0 00-.9-.4c-.24 0-.48-.09-.73-.12h-.26a.61.61 0 01.11-.54l-.56.22c0 .3-.38.49-.7.43s-.5.13-.76.17a.41.41 0 11-.12-.81l.36-.07a2.08 2.08 0 01.91-.5 5.51 5.51 0 011.58-.46.61.61 0 01.53-.41.74.74 0 01.49.13 1.08 1.08 0 01.47-.05h.5a.12.12 0 110 .23h-.5c1.75 1.17 3.86 1 5.92.9a30.42 30.42 0 003.82-.47c.92-.36 1.67-1 2.6-1.35a.78.78 0 01.82.5.59.59 0 000 .37v.07a.92.92 0 00-.68.32.39.39 0 000 .45 2.06 2.06 0 01-.78.4 14.17 14.17 0 01-7.07 1.7zm12.8-3.67a.87.87 0 00-.32-.06h-.14a1.79 1.79 0 01-.77-.42 1.91 1.91 0 01-.37.38.86.86 0 00-.2-.13v-.05c.17-.13.25-.31.42-.43 0-.71.72-.66 1.38-.61a4.79 4.79 0 00.63 0 9.76 9.76 0 004.44-1.34A7.14 7.14 0 0047.39 23l.17-.23c.36-.2.72-.43 1.06-.66a.77.77 0 01.23.19.55.55 0 01.58-.05c.9.49-1.29 2.37-2.21 3.12l-.18.1c-.31.14-.64.25-1 .4a4.19 4.19 0 00-.58.34 1.25 1.25 0 00-.4.43 7 7 0 01-3.12.6 8.69 8.69 0 01-1.82.25zm-38.47 1c-.16-1.09-.33-2.15.82-2.88a1.32 1.32 0 01.83-.3c.23.07.52.15.56.38s-.09.25-.2.15 0-.16-.13-.2c-.63-.2-1.3 1-1.35 1.43s.47 1.53-.16 1.67a.31.31 0 01-.36-.29zM18.52 35l-1.69-.28-.77-.15-.41-.1-1.51-.41a5.49 5.49 0 00-.7-.17.78.78 0 00-.5 0 .38.38 0 00-.18.25 16.89 16.89 0 01-2.43-.92c-.71.86-1.93.24-2.63-.3a11.52 11.52 0 01-2.8-1c-.51-.16-.85-.7-.52-1.14a.66.66 0 01-.43-.29l-.05-.07a1 1 0 01-1.39-.6c-.94-.78-.7-1.88-.5-2.88.06-.82.76-2 1.85-1.86a.8.8 0 01.57.73.61.61 0 01.68.07h-.08a.64.64 0 00-.36.17.44.44 0 00-.39.1.53.53 0 00-.1.44l.06.31a2.41 2.41 0 00.24.65 2.46 2.46 0 00.45.57c.23.21.54.51.91.47a.64.64 0 00.3-.11.62.62 0 00.3.16l.21.06h.25a.68.68 0 00.4-.13 5 5 0 00.4.66c1.54.36 3.07.75 4.63 1.08 1.76.25 3.54.37 5.31.58a.6.6 0 00.14.24 1.09 1.09 0 00.27.25 1.22 1.22 0 00.39.15h.26a1.12 1.12 0 00.32 0 1.47 1.47 0 00.36 0 .93.93 0 00.51-.34.58.58 0 00.09-.4v-.07h.05l.33.07a.42.42 0 00.1.2.57.57 0 00.45.18h.14c.28.08.55.17.84.24h.06a2.54 2.54 0 00.51.32 2.93 2.93 0 001.13.27h.24a1.57 1.57 0 00.53-.06 1.13 1.13 0 00.51-.33l.1-.08.45-.22a.28.28 0 00.14-.12l.72.07c2.9.34 5.41-1.31 7.83-2.48a14.71 14.71 0 012-1.23.66.66 0 00-.1.56.93.93 0 00-.74.32.44.44 0 00.22.63 1.28 1.28 0 00.47.14h.16a1.86 1.86 0 00.33 0 .91.91 0 00.38-.1l.07-.05a.9.9 0 00.27-.2.4.4 0 00.1-.18l.19-.07.92.12a6 6 0 00.74 0 4.07 4.07 0 00.78 0 .84.84 0 00.49-.26.61.61 0 00.14-.5.73.73 0 00-.75-.56 4.55 4.55 0 00-.53 0h-.78a.66.66 0 00-.52-.21.72.72 0 00-.36.1.6.6 0 00-.51-.5 2.2 2.2 0 012.49.15c1.78-.44 3.58-.78 5.35-1.25a4.67 4.67 0 012.06-.2c-.26.11-.54.21-.8.33a4.19 4.19 0 00-.58.34 1 1 0 00-.46.64.58.58 0 00.29.52 1 1 0 00.5.14h.1a2 2 0 00.78-.15 4.92 4.92 0 001.02-.67l.94-.7a6.38 6.38 0 001.06-.87.49.49 0 000-.65.66.66 0 00-.71-.13 5.79 5.79 0 00-.64.36l-.49.29a1.37 1.37 0 00-.2.13 1.59 1.59 0 01.84-.85 1.23 1.23 0 01.41-.55 1.13 1.13 0 01.38-.61 1.1 1.1 0 01.64-.61 1.08 1.08 0 011.09.19 3 3 0 011 2.49 5 5 0 01-2.53 3.32 19.83 19.83 0 01-4.79 3.1 16.15 16.15 0 01-2.25.88.58.58 0 00-.55-.27 2.7 2.7 0 00-.41.06l-.29.09-.35.1-.55.17-1.15.36-.84.25a.46.46 0 00-.45-.08l-.14.06c-.29.08-.57.19-.85.29l-.87.28h-.2l-.47.06-1 .12-2.07.27c-1.09.14-2.19.27-3.27.43l-1.29.18c-.8.06-1.6.1-2.4.14L23.6 35h-.81a1.22 1.22 0 00-.57.09h-3.66zm6.85-.1zm0 0zm0 0zm-9.74-.47zm-10.39-8.2zm33.4 1.19zm-18.45 3.4zm0 0zm-10.14 2.36c-1.86-.11-3.91-.2-5.4-1.31-2-1.46-3.2-4.13-2.18-6.32a1.91 1.91 0 01.5-.52c.44-.34 1.5-.25 1.3.42a.55.55 0 01.37.49v.11a.42.42 0 00-.36.11.52.52 0 00-.1.43l.06.32a2.48 2.48 0 00.24.64 2.51 2.51 0 00.45.58 1.31 1.31 0 00.91.47.64.64 0 00.3-.11.72.72 0 00.3.16l.21.06a.53.53 0 00.18 0h.07a.61.61 0 00.5-.23c.77.68 1.54 1.34 2.34 2a13.52 13.52 0 001.17.81c.42.23 1 .5.94 1 0 .71-.77.89-1.45.89zm-5-3.26a4.7 4.7 0 003.25 1.35c-.18-.16-.36-.32-.53-.49l-.27-.25c-1.88.3-4.23-3.18-4-4.65-.51 1.51.48 2.95 1.56 4.04zm-1.44-4.33a.64.64 0 01.29-.16.45.45 0 00-.28.16zm26 16.41c-.9 0-1.63-.88-1.18-1.63-1 .68-2.77 1.53-3.76.41a2.71 2.71 0 01-2.59-.33 2 2 0 01-2.4-.75 5.91 5.91 0 01-2 .69c-.49.53-1.64.64-1.91-.14-.9.88-2.47.6-2.73-.42a.59.59 0 00.23 0 .85.85 0 00.22 0 .51.51 0 00.35-.62.42.42 0 010-.1V39a.54.54 0 00-.5-.55.6.6 0 00-.68.44 1.07 1.07 0 000 .31 1 1 0 00.08.3 3 3 0 01-3.28.45 3.29 3.29 0 01-1.65 0 1.39 1.39 0 01-1.49-2.16.18.18 0 00-.07-.05 1 1 0 01-1.4-.28 2.16 2.16 0 01-.14-2.18 1.72 1.72 0 01-1.14-2.5c.17-.32.73-.42.9-.05h.08a.57.57 0 01.27 0 1.37 1.37 0 011.44-.84c.13 0 .26.11.26.24s-.23.14-.25 0a1.06 1.06 0 00-1.2.65l.2.14c.59-.27.88.34 1 .76 1.65-.93 4.22.35 4.13 2.08h.08a2.18 2.18 0 01.58-1.15l.27.07a2.32 2.32 0 00.56.3l.35.15c.4.17.8.32 1.21.45a.59.59 0 00-.35.6h.07a1 1 0 01.26.24 1.84 1.84 0 00.44-.64 3.89 3.89 0 00.44.16l.77.2.27.06h.18l.23.11.47.22 1.11.5 2.34 1 .2.08a.14.14 0 010 .06.91.91 0 00.43.34.38.38 0 00.17 0 .29.29 0 00.16 0l.15.08a.41.41 0 00.21 0c0 .06-.09.11-.13.16a.75.75 0 00.15-.16h.07l1.06.46a1.47 1.47 0 00.19.49l.33-.17-.08-.14 1.41.61.43.17a1.18 1.18 0 00.49.12l.33.29a2.34 2.34 0 00.31.24.94.94 0 00.22.12.6.6 0 00.26 0h.07a1 1 0 00.44-.16 1.73 1.73 0 00.27-.15l.39-.25.58-.39.81-.53.62-.23.36-.14a3.7 3.7 0 01-.43.63 6.13 6.13 0 012.28-.56 1.3 1.3 0 01-.35-.31.77.77 0 01-.14-.21l.47-.21.65-.29.16.06-.06-.1.34-.16.47-.19.84-.35c.61-.27 1.22-.54 1.82-.83l.07.08.63-.23a.94.94 0 010-.16l.49-.24 2.86-1.37 1.15-.55.39-.1.53-.13.6-.2h.06a.42.42 0 00.31-.52h.33a2.11 2.11 0 01.74.14l.17.08.15-.31c.08-.14.16-.29.25-.43a2.08 2.08 0 00-1.66.49.42.42 0 00-.08-.12.54.54 0 00-.6-.61h-.14a3.2 3.2 0 013.14-.59 3.28 3.28 0 012.5-1.06c.36-.89 1.63-1.9 2.6-1h.09a.87.87 0 01.31.07c.12-.34.07-.71.3-1a.77.77 0 011.15 0 1.52 1.52 0 01.31 1.35 2.9 2.9 0 01-.26 1.78c.18.84-.66 1.47-1.23 2A1.16 1.16 0 0149.36 35a.45.45 0 01-.3.34.42.42 0 01-.22 0c-.26.16-.63.57-.93.24A6.63 6.63 0 0145.29 37a2.33 2.33 0 01-2.09.86 5 5 0 01-1 .73c-.34 1.58-2.89 1.85-3.31.15l-.23.07c-.27.08-.53.15-.8.21 0 .08-.09.17-.13.25.92 0 2.41.47 2 1.5a1.63 1.63 0 01-3.08-.55l.08-.06a.5.5 0 00.37.17.4.4 0 100-.8.27.27 0 00-.13 0 .65.65 0 00-.16-.32.79.79 0 00-.31-.29.83.83 0 00-1.16.43.66.66 0 00.08.56 1 1 0 00.36.3 6.66 6.66 0 00-2 .68c-.14.09-.26.19-.39.28-.5.29-1-.21-.67-.61a3.88 3.88 0 01-3 1.41zm.36-.77a3.24 3.24 0 001.86-.87.88.88 0 01-.58-.53c-.62.11-2.21.47-2.05 1.17a.82.82 0 00.77.24zm8.27-.35a.86.86 0 00.66-.39c-.24-.38-.87-.35-1.31-.4a1.28 1.28 0 00.18.54.7.7 0 00.47.26zm-15.26-.78a1.6 1.6 0 00.31.1.18.18 0 00.18.15.21.21 0 00.18-.11v-.05a.17.17 0 00-.18-.17h-.11l-.12-.02zm-1.15-.34a.29.29 0 000 .16.74.74 0 00.14.22.21.21 0 00.17.08.22.22 0 00.13 0 .18.18 0 000-.26.2.2 0 00-.15-.19h-.06a.2.2 0 00-.23-.01zm-7.39.24a1.13 1.13 0 00.71-.29 2.18 2.18 0 01-.95-.11 1.71 1.71 0 01-.23-.13.45.45 0 00.47.53zm6.27-.29a.78.78 0 00.57.18h.28a2 2 0 01-.17-.4 2 2 0 01-.68.2zm-3.23 0l.22-.19.25-.27a1.35 1.35 0 01-.34-.11 3.1 3.1 0 01-.86 0c0 .08-.09.16-.14.24a.5.5 0 00.13.12 1.53 1.53 0 00.74.18zm16.07-1.26a.88.88 0 00-.33.36.62.62 0 00.06.6 1.15 1.15 0 001 .39h.19a.56.56 0 00.17-1.1.41.41 0 010-.09.72.72 0 00-.59-.29.84.84 0 00-.5.1zm-23.42.72a.33.33 0 000 .14.45.45 0 00.1.14.16.16 0 00.14.07.17.17 0 00.12 0 .15.15 0 000-.23.18.18 0 00-.16-.19.19.19 0 00-.2.04zm9-.14a1.48 1.48 0 01-.27.16.82.82 0 01-.12.2h.13l.4-.19-.11-.2zm-4-.18a4.15 4.15 0 01-.48.11 1.26 1.26 0 00.43 0 1.35 1.35 0 00.45-.11v-.18zm19.57-.57a.16.16 0 00-.1.2.21.21 0 00.1.11.69.69 0 00.2 0h.06a.19.19 0 00.21-.16.19.19 0 00-.18-.18h-.16a.15.15 0 00-.09 0zM8.73 38a.53.53 0 00.45.27.71.71 0 00.2 0 .44.44 0 00.27-.55.46.46 0 00-.25-.45.59.59 0 00-.63.07.43.43 0 00-.12.47v-.06a1.06 1.06 0 00.08.25zm27.24.14v.12h.32l.08-.08a.86.86 0 00-.07-.1zm-18.06 0l.16-.07-.16-.1-.08.03a2.14 2.14 0 00.08.18zm-2.92-.11h.15zm25.23.12h.31l.3-.06h-.12l-.2-.08a2.9 2.9 0 01-.29.18zm-29.24-.85a.3.3 0 00.1.2l.08.06a.57.57 0 00.13.08l.25.15a.14.14 0 00.09 0 .2.2 0 00.17-.09.16.16 0 00-.07-.23l-.21-.12a.5.5 0 01-.12-.08.18.18 0 00-.17-.1.18.18 0 00-.25.17zm3.08-.66a.77.77 0 00.16.48.37.37 0 00.12.13 1.77 1.77 0 01-.52.17 2.81 2.81 0 010 .29 1.68 1.68 0 01.62-.41.5.5 0 00.27.07.66.66 0 00.27-.06.47.47 0 00.24-.61.56.56 0 00-.57-.56.55.55 0 00-.59.54zm1.21.7a.36.36 0 00.71 0 .33.33 0 00-.35-.31.34.34 0 00-.36.35zM8 37.29a.34.34 0 00.67 0 .32.32 0 00-.34-.3.31.31 0 00-.33.34zm5-.27a.29.29 0 000 .24.45.45 0 00.1.14l.22.16a.25.25 0 00.34 0 .21.21 0 000-.31l-.1-.07-.06-.05a.21.21 0 00-.12-.14h-.12a.3.3 0 00-.29.07zm25.43-.49a1.72 1.72 0 01-.23.42 2.77 2.77 0 01-.68.64l-.09.06c.48 0 .79-.31 1.2-.5v-.25c0-.08.07-.27.11-.41zm-32.6-.07a.51.51 0 00.2.37.45.45 0 00.32.12.61.61 0 00.3-.08.39.39 0 00.11-.54.35.35 0 00-.05-.08.49.49 0 00-.39-.19.46.46 0 00-.49.4zm4.35 0a.47.47 0 00.48.46.5.5 0 00.53-.42.48.48 0 00-.48-.47.49.49 0 00-.53.48zm5.83.29v.07h.17v-.2zm25.63-1.11a2.48 2.48 0 010 .77 2.16 2.16 0 01-.24.61c.78-.54 1.73-1 2-1.82a1.15 1.15 0 00-.31 0 2.8 2.8 0 00-1.45.49zm-35.3-.3a.31.31 0 00-.05.32 1.06 1.06 0 00.35.44.3.3 0 00.21.07.3.3 0 00.22-.08.25.25 0 000-.38l-.14-.13v-.05a.27.27 0 00-.15-.25.4.4 0 00-.15 0 .31.31 0 00-.29.11zm-1.32.52a.25.25 0 00.26.22.23.23 0 00.24-.23.25.25 0 00-.5 0zm3.77-.1h.12c.32-.64-.49-1.15-1.08-1.35a1.2 1.2 0 00-.46 0 .25.25 0 00-.12-.24h-.07a.32.32 0 00-.3-.11.3.3 0 00-.22.14.26.26 0 000 .21.39.39 0 00.2.2 2.18 2.18 0 00-.89.89 1.72 1.72 0 011.27-.47 1.94 1.94 0 011.59.78zm35.79.24a1 1 0 00.29 0 6.42 6.42 0 00.71-.78 3.56 3.56 0 00-1 .78zm-6.12-.66a2.7 2.7 0 01-.17.34l.06.11h.72q.16-.28.36-.57l.12-.16a2.32 2.32 0 00-1.09.3zm8.59-.48h-.19a1.9 1.9 0 01-.09.29l.08-.06.31-.25zm-5.72-.11a3.28 3.28 0 012.36-.38.47.47 0 00-.14-.31 1 1 0 00-.62-.21 2.53 2.53 0 00-1.6.92zM4.9 34a1 1 0 00.29.5 2.61 2.61 0 01.22-.24 1 1 0 000-.15 6 6 0 00-.26-.58 1.79 1.79 0 00-.25.47zm-.55.49c0-.44.23-.85.26-1.29a.23.23 0 00-.07.07c.09.76-.89.55-.53-.11a1.15 1.15 0 00.34 1.28zm1.13-1.3a3.08 3.08 0 01.32.66l.08-.05c-.12-.21-.09-.66-.4-.66zm41.75.81q.33 0 .66.06a.5.5 0 010-.12 1.42 1.42 0 01.08-.18c-1.06-.29-1.1-1.41-.87-2.21a2.42 2.42 0 00-1.21.73 2 2 0 01.32.73 2 2 0 010 .65 1.54 1.54 0 01.4.36h.51zm2.41-.56a.69.69 0 000 .13l.21-.2zm-1.73-.6a.65.65 0 00.43.26 1.62 1.62 0 01.18-.2 1 1 0 00-.58-1.26 1.9 1.9 0 00-.03 1.17zm3.28-2.52a1.64 1.64 0 01-.06.93c.19-.31.45-.68.22-1a.23.23 0 00-.16.04zm-2.06-.41a1.83 1.83 0 00-.76.8 2.44 2.44 0 01.28.14 2.41 2.41 0 01.27-.56 1.76 1.76 0 01.33-.4zm2.67-.3c0-.27-.1-1-.53-.78-.17.21-.13.48-.2.72a.92.92 0 01.29 0 1 1 0 01.47.03zM18.52 35h-.38l.38-.2a.94.94 0 00-.76.13l-.93-.21h-.12c.49-1 2.23-1 3.18-.2a1.79 1.79 0 011.21.51h-2.54zM34 34l-1.69.21h-.08a2.84 2.84 0 00-1 .13c-.73.1-1.47.19-2.19.3h-.06c1.15-1.33 3.63-1.96 5.02-.64zm-21.64.12a2.24 2.24 0 01.52-.06.34.34 0 00-.09.18zm25.16-.88l-.57.19-.87.29h-.2c-.16 0-.31 0-.47.06l-.77.09a2.72 2.72 0 012.88-.66zm-11.94 4.68a.21.21 0 010-.06h.16a.64.64 0 010 .07zm11.08 2.15zM13.4 37.28zm-2 .06zm0 0zm0 0zM6.9 35.6zm-.12.86v-.06.05zm-.07-.2zm43.12-2.92l-18.15 9.17a6.75 6.75 0 01-2.18-.57c-.89.42-2.18.79-3 .12-.22-.13-.3-.42-.52-.51-.73.71-1.75.54-2.75.38a6.25 6.25 0 00-1.52-.13c-1.45.21-3.18.3-4.22-.82-1.17.44-5.16 1.2-4.44-.91-2.42-.88-5.32-.2-7.55-1.59-1.09-.71-1.25-2-1.44-3.07a3.5 3.5 0 01-.94-2c-.16-1.26 1.21-3.3 1.58-.89.38-.31.91-.13 1.36 0 .21 0 .83.2.53.45a.17.17 0 01-.2-.1 2.83 2.83 0 00-1.08-.19.71.71 0 00-.55.39c0 .39.33 1.3-.27 1.4a.37.37 0 01-.36-.25 1.41 1.41 0 01.1-1.1 4.93 4.93 0 00-.17-1.23 2.26 2.26 0 00-.23 2.27c.26.49.83.79.9 1.35.28 4 4.67 3 7.87 3.74a1.6 1.6 0 00.1.31.61.61 0 00.55.33.54.54 0 00.22 0 .63.63 0 00.35-.33c2.09-.47 3.09 0 3 .41s-1.13.88-3.24.36c-.47 1.15 3.28.22 3.78-.07.6 0 .88.69 1.49.78a1.38 1.38 0 01.75-.87.53.53 0 01.56.88 1 1 0 00.82 0 .93.93 0 01.53-.17 5.53 5.53 0 003-.32.69.69 0 01.09-.42.78.78 0 00.3 0l.33.31a3.55 3.55 0 00.31.23.94.94 0 00.22.12.62.62 0 00.27 0h.06a.54.54 0 00.21 0 1 1 0 01.36.24c.18.17.29.41.55.5a3.07 3.07 0 001.74-.31.5.5 0 011 0 5.4 5.4 0 001.88.47.43.43 0 01.33-.34l.44-.11a.47.47 0 01.37-.16 5.37 5.37 0 001.45-.43.87.87 0 011-.71 1 1 0 00.5.37h.06c0 .18-.07.41-.42.66 1.4-.3 3.08-.18 4.17-1.07.21-.23.18-.6.51-.73a.53.53 0 01.54.11 3 3 0 00.92.16 3.3 3.3 0 002.23-.39c.38-.86 1.43-1.23 2.14-1.88.52-.49 1.34-.52 1.92-.93.89-.46 1.34-1.31 2.19-1.82 2.22-1.44 2.17-2 2-4.3a2.71 2.71 0 01-.49-.53 1.14 1.14 0 011-1.51c.67-.66 1.3.33 1.27.9a4.71 4.71 0 01-.35 1.92.41.41 0 01-.32.27c.43 2.11-1.23 3.17-2.87 4.33a6.27 6.27 0 01-2.25 1.77 5.44 5.44 0 00-2.06 1.05c-.33.26-.72.46-1 .74a1 1 0 01-.21.46c-.92 1.07-2.77.87-4.1.64-1.08 1.57-3.58 1.29-5.36 1.66a.83.83 0 01-.65.13 12.78 12.78 0 00-1.75 0c0 .44-.47.56-.91.55zm-39.7 5.81a.29.29 0 000 .13.31.31 0 00.09.14.17.17 0 00.15.07.2.2 0 00.11 0 .16.16 0 000-.24.18.18 0 00-.16-.19.19.19 0 00-.19.09zm42.24-9.87c.13.18.38.29.52.46a.44.44 0 01.08.11 2.12 2.12 0 00.09-1 .44.44 0 01-.4 0 .48.48 0 00-.29.43zm-27.75 20a9.07 9.07 0 01-1.89-.68 1 1 0 00-.29-.23 1.64 1.64 0 00-.61-.21h-.16a3.3 3.3 0 01-1-.71c-.41-.47-.37-1.15-.84-1.58-.17-.24-.48-.14-.67 0a2.05 2.05 0 00-.54 1.13c-.33.58-1.15.8-1.69 1.22a2 2 0 01-1.21.43 6.23 6.23 0 01-1.89-1.54c-.39-.48-.42-1.18-1-1.55-.64-.17-.94.59-1.3.91a1.5 1.5 0 01-.32.19l-1.38-.6a10.08 10.08 0 00-1.24-.44A1.65 1.65 0 007.54 45 5.84 5.84 0 015 44.52 3.07 3.07 0 013.94 41c.76-2.82-3.14-3.49-2.18-5.51a2.38 2.38 0 011.71-1 .12.12 0 110 .23 2 2 0 00-1.54 1c-.4 1.14 1 1.84 1.62 2.64a3.33 3.33 0 01.8 2.53 3.37 3.37 0 00.25 2.57c.84 1.67 3.37.38 4.55 1.67a2.52 2.52 0 00.95.76 1.13 1.13 0 00.67.13c.47-.18.64-.7 1.1-.93a1.28 1.28 0 011.65.18c.42.43.5 1 .83 1.49A6.17 6.17 0 0015.91 48c.77-.33 1.42-.78 2.15-1.17a3.77 3.77 0 01.56-1.16 1.07 1.07 0 011.79.09c.34.39.37.92.65 1.32a10.45 10.45 0 003.54 1.69c1.09.29 1.74-.66 2.33-1.3s2-1.74 2.95-.92c.5.34.43.95 1 1.16 1.46.52 1.1.24 1.92-.64a3.54 3.54 0 012.3-.76c1.51-.17 3.06-.07 4.54-.3.48-.37.73-1 1.3-1.3 1.1-.45 2.14.44 3.12.79a3.51 3.51 0 003.39-1.5c0-.56-.82-.83-.49-1.45.45-1.1 2.06-1.08 3.17-1.21a1.82 1.82 0 001.38-.42c.79-.68 1.73-1.43 1.69-2.48a2.46 2.46 0 01.45-2c.69-.58 1.73-.73 2.37-1.36.24-.2 0-.49 0-.73-.26-1.06.6-2 1.15-2.81a2.44 2.44 0 00-.81-1.87 2.28 2.28 0 00-1.8-.21.33.33 0 01-.36-.25.3.3 0 01.28-.31 3 3 0 012.25.35 2.74 2.74 0 011 2.48c-.39.71-1.07 1.31-1.14 2.13 0 .45.32.89.11 1.32a5.19 5.19 0 01-2.18 1.36c-.62.22-.66.94-.74 1.44a2.77 2.77 0 01-1.15 2.82 3.57 3.57 0 01-1.72 1.08 8 8 0 00-3 .51c-.12.14-.35.38-.21.55 1.54 1.45-.86 2.81-2.32 3.16a3 3 0 01-2.27-.41 2.83 2.83 0 00-1.81-.53c-.5.31-.73.86-1.17 1.22a7.8 7.8 0 01-2.61.31c-1.37.13-2.88-.08-4.06.57-.54.32-.6 1.09-1.28 1.22-.84 0-2-.29-2.21-1.09a1.28 1.28 0 00-.49-.61c-.66-.22-1.27.46-1.8.73-.77.67-1.38 1.83-2.56 1.82a2.18 2.18 0 01-.5-.04zm-16.89-7c-.21 0-.47-.19-.32-.39a.25.25 0 01.4 0 4.78 4.78 0 002-.76A6.55 6.55 0 0011.64 40a.82.82 0 01.26-.14c.26-.1.45.25.2.36s-.23.26-.39.35a20.3 20.3 0 01-2.43 1.33 3.23 3.23 0 01-1.36.42zm6.73.38c-.13-.2.27-.34.37-.5s.39-.48.57-.53c.36.08-.19.46-.29.59s-.36.47-.56.46a.15.15 0 01-.09-.04zm4-2a.13.13 0 01.26 0 .13.13 0 01-.13.11.12.12 0 01-.15-.14zM13.89 43a.19.19 0 010-.31 22.4 22.4 0 012.78-1.8 1 1 0 01.88-.06c.08.06.2.22.06.29s-.17-.08-.24-.13c-.68 0-1.2.54-1.72.86s-1 .75-1.45 1.15a.27.27 0 01-.17.06.23.23 0 01-.14-.06zm5.25 1.69a.24.24 0 01-.18-.29c.18-.57.4-1.12.61-1.67s.38-1 .54-1.46a.48.48 0 01.23-.4c.31-.17.63.25.31.42-.36 1.09-.81 2.15-1.18 3.24a.27.27 0 01-.26.17zm5.08 1.77c-.75-1.28-1.53-2.77-1.06-4.23a.63.63 0 01.76-.46c.43.08.21.62-.19.48a4 4 0 00.58 3.3c.08.3.64.74.28 1a.32.32 0 01-.14 0 .27.27 0 01-.23-.06zm3.21-4.26a.12.12 0 01.13-.11.11.11 0 01.12.11.12.12 0 01-.13.11.12.12 0 01-.12-.08zm-15.07-.7c-.19-.15.14-.35.21-.49s.19-.32.36-.23-.2.34-.26.49-.13.24-.25.24zm-.7 2a.11.11 0 010-.16l1.56-2.16c.52-.72 1-1.45 1.57-2.17a.14.14 0 01.17 0c.06 0 .09.11 0 .16-.53.71-1 1.42-1.54 2.13l-1.59 2.24a.17.17 0 01-.11.06zm1.38 0a.1.1 0 010-.15c.4-.62.83-1.23 1.28-1.82.2-.26.39-.52.59-.77a.14.14 0 01.18 0 .11.11 0 010 .16c-.65.83-1.29 1.68-1.85 2.56a.14.14 0 01-.12.06zm1.18.93a.12.12 0 01-.05-.16l1.08-1.57 1.35-2a.12.12 0 01.17 0 .153.153 0 01.06.3l-1.36 1.9-1.08 1.58a.14.14 0 01-.11.05zm1.41-.15a.11.11 0 01-.06-.15c.25-.6.59-1.16.89-1.74s.63-1.16.95-1.74a.13.13 0 01.17-.06.11.11 0 01.06.15c-.31.57-.63 1.14-.93 1.72s-.65 1.16-.91 1.76a.14.14 0 01-.12.07zm1.07-.18c-.06 0-.1-.1-.07-.15.61-1.07 1.28-2.1 1.91-3.16.75-.38-.79 1.65-.84 1.84-.28.47-.57.94-.83 1.41a.15.15 0 01-.12.07zm.6.52a.12.12 0 01-.07-.15c.61-1.27 1.24-2.54 1.87-3.81a.13.13 0 01.16-.06.11.11 0 01.07.15q-.95 1.9-1.86 3.81a.12.12 0 01-.12.07zm.07 1.38a.12.12 0 01-.07-.15c.38-.8.79-1.59 1.19-2.38s.86-1.67 1.29-2.51a.14.14 0 01.18-.06.11.11 0 01.06.15l-1.3 2.51c-.4.79-.8 1.58-1.18 2.38a.15.15 0 01-.12.07zm1.53.19a.101.101 0 01-.07-.19q1.19-2.28 2.38-4.55a.15.15 0 01.17-.06.11.11 0 01.06.15c-.79 1.51-1.59 3-2.37 4.54a.13.13 0 01-.12.07zm.93 1.29a.1.1 0 010-.15c.55-.85 1.13-1.69 1.71-2.53l1.84-2.66a.15.15 0 01.18 0 .11.11 0 010 .16l-1.84 2.66c-.58.83-1.16 1.67-1.71 2.52a.14.14 0 01-.11.06zm2-1.16c-.23-.08 0-.33 0-.47a21.26 21.26 0 011.86-3.23l.82-1.25a.19.19 0 01.24 0 .14.14 0 01.06.21c-.55.84-1.12 1.67-1.64 2.52a10.5 10.5 0 00-1.13 2.18.16.16 0 01-.15.1zm1.39-.12c-.73-.3 1.73-3.45 2-4.06.17-.25.61 0 .44.23-.47.71-.94 1.41-1.38 2.14a6.91 6.91 0 00-.8 1.55.24.24 0 01-.23.15zm1.62-1c-.06 0-.11-.09-.09-.14a9 9 0 011-1.77c.42-.65.85-1.29 1.32-1.91a.14.14 0 01.18 0 .1.1 0 010 .15c-.35.47-.69 1-1 1.44A11.42 11.42 0 0025 45.16a.13.13 0 01-.13.08zm.6 1.43c-.25-.14 0-.42.09-.6.8-1.59 1.73-3.13 2.62-4.68.13-.2.49 0 .35.19L27.05 44c-.48.85-1 1.68-1.41 2.56a.18.18 0 01-.16.09zm1.67-.23a.11.11 0 01-.07-.14 28.56 28.56 0 011.56-2.88c.14-.17 1-2 1-1.26-.75 1.26-1.54 2.5-2.17 3.81-.11.14-.11.48-.33.48zm2-.78a.11.11 0 01-.09-.14c.36-1.28.73-2.55 1.1-3.82 0-.06.09-.09.15-.08a.11.11 0 01.09.14c-.37 1.27-.73 2.55-1.1 3.82a.11.11 0 01-.12.08zm.42-.47a.13.13 0 01-.1-.16 12.86 12.86 0 011.09-2.2l.58-1a.17.17 0 01.21-.05.13.13 0 01.05.19l-.92 1.6a10.85 10.85 0 00-.74 1.54c0 .06-.07.09-.14.09zm1.12-.15a.15.15 0 01-.12-.18 27 27 0 011.73-3.22c.11-.16.41 0 .29.16-.27.46-.54.94-.82 1.41a12.24 12.24 0 00-.9 1.71.17.17 0 01-.16.1zm1-.16a.2.2 0 01-.11-.25c.24-.52.53-1 .82-1.52s.66-1.07 1-1.6a.24.24 0 01.31-.07.19.19 0 01.08.27c-.39.58-.75 1.18-1.11 1.77-.27.44-.48.85-.71 1.3a.23.23 0 01-.2.11zm.82-.48a.11.11 0 01-.09-.14c.08-.33.18-.65.28-1s.19-.56.3-.84a.12.12 0 01.15-.07.11.11 0 01.09.14 18.86 18.86 0 00-.58 1.8.12.12 0 01-.12.08zm1.42.21c0-.92.05-1.84.11-2.77a.16.16 0 01.16-.14.16.16 0 01.16.14c0 .68-.1 1.36-.13 2v.75a.15.15 0 01-.3 0zm.13-2.15a.11.11 0 01.06.21 1.67 1.67 0 00.23 1.17c0 .25 1 1.13.49 1.13-.44-.31-1.45-2.23-.76-2.53zm.55 2.48c-.94-.78-1.59-2.21-.56-3.14a.53.53 0 01.26-.08.13.13 0 110 .25.26.26 0 00-.15.07 1.56 1.56 0 000 2 6.19 6.19 0 00.61.65.14.14 0 010 .21.2.2 0 01-.24 0zm.82-1.33c-.55-.9-1-2.19-.36-3.13.24-.21.56.14.25.28a2.34 2.34 0 000 1.87 4.45 4.45 0 00.4.82.15.15 0 01-.07.22.16.16 0 01-.09 0 .17.17 0 01-.11-.08zm-.19.58c-.24-.78-.42-2.55.52-3a.34.34 0 01.38.26.32.32 0 01-.15.29 2.91 2.91 0 00-.3 1.56c-.05.33.37.88-.09 1.05h-.07a.29.29 0 01-.27-.18zm1.16-.57a2.46 2.46 0 01.21-1.6.22.22 0 01.18-.08.11.11 0 010 .22 2.28 2.28 0 00-.17 1.43c0 .08-.06.12-.13.12a.11.11 0 01-.07-.11zm.73 0c0-.65 0-1.3.1-2a.13.13 0 01.15-.09.11.11 0 01.1.13c0 .32-.05.63-.07.95s0 .65 0 1a.13.13 0 01-.26 0zm1.37.59a.1.1 0 01-.1-.12c.05-.47.12-1 .19-1.42s.14-.86.21-1.3c0-.14.27-.11.25 0-.16.91-.29 1.81-.41 2.72a.12.12 0 01-.12.1zm.91-.53a14.61 14.61 0 01.13-2.38.17.17 0 01.18-.13.15.15 0 01.14.17c-.06.35-.09.73-.12 1.08s0 .84 0 1.27c0 .08-.07.12-.15.12a.13.13 0 01-.16-.12zm1.09-.75c-.31-.1 0-.56 0-.78s.07-.79.44-.91a.17.17 0 01.11.31 4.23 4.23 0 00-.3 1.25.19.19 0 01-.18.13zm1 0a.13.13 0 01-.13-.1 16.49 16.49 0 01-.14-2 .12.12 0 01.13-.11.11.11 0 01.12.11c0 .39 0 .77.06 1.15s.05.54.08.81a.12.12 0 01-.11.13zm2.12 1.74a5.09 5.09 0 01-1.16-2.73c-.08-.45-.14-.91-.2-1.37a.19.19 0 01.19-.21.2.2 0 01.23.16l.19 1.27q.07.54.18 1.08a.15.15 0 01-.07.15 9.1 9.1 0 00.9 1.57c.06.09 0 .17-.11.17a.13.13 0 01-.09-.05zm-1.06-.23a6.93 6.93 0 01-.2-3.61.34.34 0 01.2-.24c.15-.05.25.16.09.21a4.79 4.79 0 000 2.68c.06.32.12.61.19.9a.11.11 0 01-.09.14.11.11 0 01-.13-.04zm.48-1.85c-1-2.69 1.21-2.18.53-1.38a4.11 4.11 0 00.17 1.21.33.33 0 01-.26.4h-.09a.37.37 0 01-.29-.19zm.47.94a5.78 5.78 0 01-.53-4c.08-.24.17-.69.55-.62a.16.16 0 11-.07.31 4.39 4.39 0 000 3 8.73 8.73 0 00.41 1.09.21.21 0 01-.22.28.13.13 0 01-.08-.02zm0-.24a5.09 5.09 0 01.71-4.41.21.21 0 01.28 0 .16.16 0 010 .25 3.12 3.12 0 00-.63 1.39 5.82 5.82 0 000 2.72c0 .13-.08.21-.19.21a.18.18 0 01-.14-.12zm.9-.39a16.36 16.36 0 01-.13-4.25.13.13 0 01.15-.13c.07 0 .15.06.14.13 0 .7-.1 1.4-.07 2.1a15.2 15.2 0 00.2 2.12c0 .09-.07.14-.15.14a.13.13 0 01-.11-.07zm.68.34a21.53 21.53 0 01-.08-4.32.19.19 0 01.19-.17c.1 0 .2.08.19.17-.06.91-.1 1.82-.07 2.74 0 .53 0 1 .11 1.54 0 .11-.08.17-.18.17a.17.17 0 01-.13-.09zm1.19-2.89c-.2-.54.17-1.34.26-1.91.09-.31.17-.62.26-.92a.16.16 0 01.19-.09.13.13 0 01.1.16c-.15.55-.32 1.09-.43 1.65a.11.11 0 010 .14c-.09.15 0 1-.23 1a.19.19 0 01-.12.01zm1.62-1.89a4.85 4.85 0 01.19-1.77.12.12 0 01.15-.07.11.11 0 01.09.14 5.24 5.24 0 00-.18 1 4.56 4.56 0 000 .74.12.12 0 01-.13.11.13.13 0 01-.09-.11zm.73.34a6.2 6.2 0 01.45-2.75.13.13 0 01.19-.01c.06 0 .11.08.08.14a7.77 7.77 0 00-.48 1.86 3.31 3.31 0 000 .77.13.13 0 01-.11.13.13.13 0 01-.1-.1zm1.24-1.11a.13.13 0 01-.1-.18c0-.57.12-1.14.19-1.71a.12.12 0 01.14-.09.12.12 0 01.11.13c-.06.51-.13 1-.18 1.54 0 .1 0 .31-.14.31zm.26 1.53a4.83 4.83 0 01-.21-3.45c.08-.23.13-.55.4-.66s.42.26.22.39a5.1 5.1 0 00-.28 2.86 2.87 2.87 0 00.26.71.19.19 0 01-.11.25h-.08a.21.21 0 01-.18-.1zm.79-1.81a15.65 15.65 0 01.3-3.48.18.18 0 01.2-.14.16.16 0 01.15.18c-.1.7-.23 1.43-.29 2.12a9.69 9.69 0 000 1.32c0 .1-.09.14-.17.14s-.17-.04-.17-.14zm.95-1.23a.11.11 0 01-.1-.14c.15-.47.31-.92.5-1.37a5.75 5.75 0 01.34-.65.14.14 0 01.17 0 .1.1 0 010 .15 9.26 9.26 0 00-.8 2 .13.13 0 01-.13.08zm.13-3.34a.2.2 0 01.21-.18.2.2 0 01.22.19.22.22 0 01-.43 0zm0 .5a.13.13 0 01.13-.11.11.11 0 11-.13.11zm1.5-1.78a1.91 1.91 0 010-1c0-.14.27-.11.25 0a3.29 3.29 0 000 .7c0 .1.14.27 0 .32a.135.135 0 01-.27-.02zM3.83 36.5a.11.11 0 01.12-.11.12.12 0 110 .23.12.12 0 01-.12-.12zm4.2 2.84c-.82-.27-5.13-1.43-3.94-2.54.22-.08.28.14.06.25-.24.72 2.23 1.51 2.85 1.73l1.1.35a.12.12 0 01.09.14.15.15 0 01-.13.08zm.7 2.63c-.67-.35-4.41-3.19-3.63-3.77a.12.12 0 01.13.11c.46 1.24 1.81 2.13 2.89 3l.76.51a.09.09 0 010 .15.12.12 0 01-.1 0 .11.11 0 01-.03.03zm-2.45-1.51c-.46-.48 2-.79 2.31-.89.51-.11 1-.2 1.53-.28a.6.6 0 00.09.13.17.17 0 00.13.07 18.29 18.29 0 00-3.87.87.14.14 0 01-.13.11zm4.19-1zm0 0l.06-.06a.12.12 0 01-.06.06zm-3.41 1.82a11.94 11.94 0 001.31-.22c.15 0 .22.19.06.22a12.47 12.47 0 01-1.34.22.11.11 0 11-.01-.22zm.75.47a.11.11 0 01.11-.12l.93-.11a.14.14 0 01.15.1c0 .06 0 .11-.11.12-.32 0-.63.09-.95.11a.13.13 0 01-.11-.1zm.68 1.8a.12.12 0 01.13-.12.12.12 0 01.12.12.12.12 0 01-.12.11.12.12 0 01-.11-.11zM23.75 56a34.58 34.58 0 01-8.47-1.41A21.12 21.12 0 016 49.94a7.87 7.87 0 01-3.6-5.68 6.08 6.08 0 01.72-4.49c0-.07-.09-.12-.15-.16a.12.12 0 010-.23.42.42 0 01.31.61 6 6 0 00-.38 3.32c.58 3.69 2 4.84 5.13 7a17.52 17.52 0 003 1.71 5.06 5.06 0 00.46.24c.71.35 1.43.68 2.16 1s1.36.59 2.06.84c.35.13.71.24 1.08.34a1.4 1.4 0 00.7.06.66.66 0 00.25-.13h.63a.81.81 0 00.09.1 3.16 3.16 0 001.63.63 12.89 12.89 0 001.85.19h1.98a51.79 51.79 0 008.91-.87c.65-.12 1.3-.27 1.94-.45l.06.03a4.61 4.61 0 00.64 0 10.19 10.19 0 001.1-.09 14.28 14.28 0 002.16-.45c.66-.18 1.33-.34 2-.53s1.08-.32 1.61-.51a33.33 33.33 0 003.84-1.74c.26-.13.52-.26.77-.4a.65.65 0 00.24 0 2 2 0 00.35-.06 2.3 2.3 0 00.34-.12 6.12 6.12 0 00.95-.5l.84-.52c.61-.4 1.22-.8 1.78-1.24a11.17 11.17 0 001.5-1.41 15.28 15.28 0 001.28-1.63.25.25 0 010-.07c.11-.17.21-.34.31-.51s.43-.52.63-.79.21-.3.31-.46a1.33 1.33 0 00.35-.97.68.68 0 00-.12-.26 5.29 5.29 0 00.15-.57 11.44 11.44 0 00.29-4.24c-.07-.45.73-.55.8-.09q.08.44.12.87c.17 4.8-1.58 8.3-6 11.11a43.27 43.27 0 01-7.6 4 22.91 22.91 0 01-7.73 1.94A50.74 50.74 0 0125.25 56h-1.5zm30.46-11.17zm0 0zm0 0zm0 0zm0 0zm0 0zm0 0zm0 0zm2.71-7.27c-.35-.39-.4-1.05-.88-1.39-.13.28-.43-.08-.18-.21s.74.3 1.06.79.4.82.1.82zm-45-10.76A34.48 34.48 0 014.9 25c-2-.64-4.42-1.75-4.23-3.94a.13.13 0 01.25 0v.14c0 2.93 4.41 3.29 6.82 4 1.45.31 2.89.67 4.37.87a.28.28 0 110 .56zm-10.47-4A5.91 5.91 0 01.83 20a9.92 9.92 0 011-6 7 7 0 01.71-.91.23.23 0 01.3 0 .17.17 0 010 .26A6.3 6.3 0 001.57 16c.11-.2.18-.51.44-.57s.13.18 0 .24a6.52 6.52 0 00-.68 2.51 8.08 8.08 0 00.5 4.14.8.8 0 01.11.25c.05.14-.09.25-.23.25a.21.21 0 01-.17-.08zm40.21 2.48c-.48-.43 1.56-.92 1.86-1.22s.85-.45 1.28-.67l.26-.12h.28a3.48 3.48 0 00.91-.44l.36-.24.22-.08.44-.19.56-.32a.48.48 0 00.17-.21c.56-.23 1.26-.7 1.82-.59a12.49 12.49 0 003-1.87l-.22.54a3.66 3.66 0 00-.23.63 20.43 20.43 0 01-3.38 1.76c-1.58.78-3.29 1.34-4.91 2.06a21.1 21.1 0 01-2.06.91h-.1a.25.25 0 01-.17-.01zm1.08-1c.79-.3 1.56-.64 2.32-1h.13a.39.39 0 00.15 0 3.31 3.31 0 00.91-.43l.36-.24.23-.08.43-.19a3.5 3.5 0 00.56-.34.41.41 0 00.17-.2l.17-.1a.34.34 0 00.16-.35l.28-.13h.14a1 1 0 00.35 0l.34-.11a6.24 6.24 0 00.76-.28 3.55 3.55 0 00.7-.43 5.31 5.31 0 00.56-.49 5.25 5.25 0 00.43-.53c.14-.18.26-.37.38-.56a5.8 5.8 0 001.79-3l-.1.16a10.54 10.54 0 01-1.26 1.7l.36-.45.48-.64c.18-.26.36-.52.52-.78l.14-.25-.09.43-.09.36a.14.14 0 000 .07c-.19.6-.41 1.2-.63 1.79l-.29.75a13.78 13.78 0 01-3.89 2.69A50.69 50.69 0 0143.67 24a1.5 1.5 0 01-.68.24.47.47 0 01-.16-.03zm10.7-12.89c0-.24-.23-.69 0-.84a.14.14 0 01.11 0c0 .08 0 .17.05.26a4.8 4.8 0 00.14.83v.18a2.14 2.14 0 00-.13.19zm-6 10.86a3.84 3.84 0 00.39-.25.41.41 0 00.17-.2l.17-.1a.37.37 0 00.16-.36.18.18 0 01.07-.05l.15-.09a.76.76 0 00.18.06 1 1 0 00.35 0l.34-.11a6.24 6.24 0 00.76-.28 3.55 3.55 0 00.7-.43 5.31 5.31 0 00.56-.49 5.25 5.25 0 00.43-.53 5.82 5.82 0 00.44-.66v.05c.08-.14.15-.28.22-.42a4.43 4.43 0 00.2-.45.34.34 0 00-.18-.41 11 11 0 00.8-3 9.15 9.15 0 00-.35-4.29.12.12 0 010-.15c-.13-.74-.69-1.52-.49-2.25a.37.37 0 01.51 0 .65.65 0 000 .24 8.24 8.24 0 00.24 1c.07.25.13.49.19.74v.06c0 .2.08.41.13.61.09.47.16.93.24 1.4s.14.91.23 1.37c0 .25.1.5.16.75s.05.22.08.33a1.33 1.33 0 000 .19v.19c-.06.44-.15.87-.25 1.3 0 .11 0 .22-.08.33a.19.19 0 000 .07c-.09.27-.18.55-.28.82a11.92 11.92 0 00.3-3 8.08 8.08 0 01-4.06 6.88c-.41.18-1.69 1.23-2.28 1.23a.28.28 0 01-.25-.1zM54.03 16zm-9.5 2.15a19.38 19.38 0 00-.89-4.37c-.23-.61-.46-1.21-.7-1.81a.11.11 0 01.07-.15.13.13 0 01.16.06 25.5 25.5 0 011.07 3c0 .19.8 3.32.43 3.32-.04 0-.08-.03-.14-.09zm2.31 1l-.12-.5-.11-.38c-.06-.23-.13-.46-.2-.69s-.13-.45-.2-.68-.09-.32-.14-.48-.19-.6-.28-.9c0-.12-.08-.25-.13-.38-.18-.49-.36-1-.52-1.46l-.54-1.38-.17-.48-.15-.44c0-.13-.09-.26-.13-.39a.12.12 0 01.09-.14.14.14 0 01.16.08c.13.41.27.82.41 1.22s.37 1 .56 1.44c.07.18.13.37.2.55s.22.63.34.94c.05.15.1.3.14.46l.3.93.18.63c.07.22.13.44.2.66s.1.34.14.52.15.54.22.81a.12.12 0 01-.09.14.13.13 0 01-.17-.15zm-.38.94a.25.25 0 01.26-.23.24.24 0 01.25.23.23.23 0 01-.25.22.25.25 0 01-.26-.31zm.18-1.93a20 20 0 00-1.6-5.92c-.23-.5-.46-1-.71-1.5a.13.13 0 01.07-.15c.26 0 .26.36.38.5a23.85 23.85 0 011.45 3.7c.07.21.93 3.47.56 3.46a.25.25 0 01-.15-.16zm.86-2.88l-.57-1.18-.47-.85-.41-.71a2.39 2.39 0 00-.13-.21l-.15-.25-.55-.88-.18-.28c-.21-.32-.41-.63-.63-.92s-.23-.28-.33-.42a1.46 1.46 0 00-.16-.19.13.13 0 01-.1 0 .1.1 0 010-.16h.16l.08.05a.7.7 0 01.1.08.48.48 0 01.09.11.79.79 0 01.12.15l.24.3a3.15 3.15 0 01.22.29c.18.25.35.52.52.79l.36.57.45.71c.1.15.18.31.27.46l.21.37a1.4 1.4 0 01.1.16l.37.68c.11.19.2.38.3.57s.25.48.37.73a.1.1 0 01-.07.14.138.138 0 01-.21-.18zm.8 2.56a.25.25 0 01.26-.22.24.24 0 01.25.23.26.26 0 01-.51 0zm.42-2.49a34.64 34.64 0 00-2.06-4.36l-.93-1.73a.14.14 0 01.1-.26.14.14 0 01.16.06 51.4 51.4 0 012.84 5.8c0 .15.26.37.07.48a.13.13 0 01-.18-.06zm.19 1.65a.24.24 0 01.25-.22.23.23 0 110 .45.24.24 0 01-.25-.23zm.11-3.51c-1.1-1.6-2.15-3.25-3.39-4.76-.08-.14-.4-.3-.24-.45a.14.14 0 01.18 0c.22.25.45.5.65.77 1.06 1.41 2 2.86 3 4.31.06.09 0 .17-.12.17a.12.12 0 01-.08-.03zm1.24-.92c-1.86-1.67-3.52-3.65-5.67-5-.13 0-.17-.07-.16-.13a.17.17 0 01.25-.11c2 1.2 3.49 3 5.21 4.54l.56.55a.1.1 0 010 .16.12.12 0 01-.1 0 .14.14 0 01-.09 0zm.19.46a.25.25 0 01.26-.22.24.24 0 01.25.23.26.26 0 01-.51 0zm.63 3a13.27 13.27 0 00-5.9-9.45c-.12-.08 0-.27.16-.17a13.53 13.53 0 015.95 9.27c0 .14.14.39-.06.45a.13.13 0 01-.15-.13zm.51-3.18a26.76 26.76 0 00-5.57-6.93c-.23-.07 0-.32.16-.18a28.07 28.07 0 015.39 6.56c.06.18.4.47.19.61h-.05a.14.14 0 01-.12-.06zm.89-.21c-1.77-3-4.33-6-8-7.12a.14.14 0 110-.28 9.19 9.19 0 013.24 1.6 16.63 16.63 0 014.83 5.38c.06.14.3.34.13.46h-.06a.14.14 0 01-.14-.04zM49.4 10.2a37.76 37.76 0 00-7.57-5.1 1.07 1.07 0 000-.25 39.09 39.09 0 017 4.58l.7.61a.1.1 0 010 .16.16.16 0 01-.09 0 .14.14 0 01-.04 0zm2.75.07c-2.2-4-6.39-6.33-11.19-7.08a1.23 1.23 0 00-.13-.25c4.22.67 8.35 2.49 10.61 5.83.1.17 1.22 1.54.87 1.54a.56.56 0 01-.16-.04zM45.07 6.9a12.48 12.48 0 00-1.73-1.12.11.11 0 010-.15.14.14 0 01.18 0 12.37 12.37 0 011.39.86c.12.13.49.23.39.43a.12.12 0 01-.1 0zm1.42.16a9.23 9.23 0 00-2.78-1.45c-.11.1-.29 0-.18-.15s.19-.08.29-.07a6.87 6.87 0 012.07 1l.76.48a.11.11 0 010 .16.13.13 0 01-.1 0zm-.59-.85a20.42 20.42 0 00-3-1.29.14.14 0 01-.07-.18.15.15 0 01.15-.07 12.55 12.55 0 012.24.92l.85.43a.11.11 0 010 .16.14.14 0 01-.11.05.1.1 0 01-.06-.02zm-4.85-2.68V3.3c.76.1 1.51.21 2.24.27.26.08 3.11.23 2.27.53-1.53-.21-3.02-.4-4.51-.57zm-4.44-.47l.22-.06h-.06zm6.3 17.84a.13.13 0 01-.11-.13 14.8 14.8 0 00.09-2.3c-.06-.77-.21-1.53-.34-2.29a.12.12 0 01.11-.13.13.13 0 01.14.1 19.22 19.22 0 01.35 2.48 15.69 15.69 0 01-.1 2.17.11.11 0 01-.12.1zm-2.08 1.42a.11.11 0 01-.09-.14 24.46 24.46 0 001-4.27c.53-.58 0 1.54 0 1.73-.18.88-.44 1.74-.7 2.6a.13.13 0 01-.13.08zm-3.63 2.32a.11.11 0 01-.09-.14l1.22-4.5a.13.13 0 01.16-.08.12.12 0 01.09.14c-.41 1.5-.82 3-1.24 4.49a.12.12 0 01-.12.08zm-1.66-.13a.12.12 0 01-.07-.15c.28-.56.55-1.13.8-1.7l.81-1.83a.13.13 0 01.17-.06.1.1 0 01.07.14c-.27.62-.54 1.22-.82 1.83s-.52 1.14-.8 1.71a.12.12 0 01-.11.07zm3.85-.37a.11.11 0 01-.06-.15c.56-1.12 1.08-2.26 1.6-3.4.38-.88.77-1.75 1.16-2.63a.13.13 0 01.16-.06.11.11 0 01.07.15c-.48 1.08-1 2.17-1.44 3.24s-.85 1.85-1.31 2.77a.27.27 0 00-.12.09zm2.55-1.83a.11.11 0 01-.09-.14c.55-1.43 1-2.89 1.53-4.35 0-.14.29-.08.24.06-.49 1.46-1 2.92-1.53 4.36a.12.12 0 01-.12.08zm2.89-1.53a.12.12 0 01-.11-.13 15.87 15.87 0 00.23-1.93c.06-.85.13-1.69.19-2.54a.13.13 0 01.26 0c-.06.81-.13 1.62-.19 2.42a16 16 0 01-.24 2.08.12.12 0 01-.12.1zm2.44-.93a.18.18 0 01-.11-.24 8 8 0 00.17-2.14v-2.31a.24.24 0 01.25-.21.22.22 0 01.23.21v2.4c-.1.43.16 2.3-.49 2.29zm1.79-1.08a.12.12 0 01-.11-.13c.1-.54.16-1.08.24-1.63.1-.74.19-1.48.29-2.23a.12.12 0 01.14-.09.11.11 0 01.11.12c-.1.75-.19 1.49-.29 2.24-.07.54-.14 1.09-.24 1.63a.12.12 0 01-.12.09zm2.34-1.49a.56.56 0 00-.19-.09c.11-.39.17-.8.3-1.19.19-.79.39-1.57.58-2.36 0-.14.29-.08.25.06-.32 1.19-.56 2.41-.91 3.59zm1.4 2.26c.31-2.31.59-4.62.81-6.94a.13.13 0 01.15-.1.11.11 0 01.1.13c0 .38-.07.75-.11 1.13q-.28 2.74-.65 5.49c0 .14 0 .42-.19.42a.12.12 0 01-.15-.13zM2.7 22.36c.19-3.39.35-7.19 2-10.18a.12.12 0 01.09.14c-.19.46-.36.94-.53 1.41a19.48 19.48 0 00-1 4.3c-.13 1.24-.27 2.48-.32 3.72-.07.2.11.66-.14.72a.12.12 0 01-.14-.11zm2.26 1.57c-.18-2.12-.37-4.24-.55-6.35a.12.12 0 01.11-.13.12.12 0 01.14.1c.18 2.12.37 4.23.55 6.35a.11.11 0 01-.13.12.11.11 0 01-.16-.09zm1.46.33a36.44 36.44 0 01-.47-4.65.12.12 0 01.13-.11.13.13 0 01.13.11 34.1 34.1 0 00.46 4.62.12.12 0 01-.13.13.11.11 0 01-.16-.1zm2.35.38a25.13 25.13 0 01-.73-4c0-.19-.18-.56.06-.66a.14.14 0 01.14.1l.06.67a26.6 26.6 0 00.71 3.85c0 .09-.05.14-.13.14a.1.1 0 01-.15-.1zm3.36-.08a7.19 7.19 0 01-1.33-4 .11.11 0 01.11-.12c.07 0 .14 0 .14.09a7.14 7.14 0 001.12 3.65c.05.13.3.3.13.41h-.06a.11.11 0 01-.15-.03zm2.16.33a7.05 7.05 0 01-.78-2.89.13.13 0 01.26 0 4.1 4.1 0 00.29 1.66c.13.38.27.74.42 1.12 0 .08 0 .15-.13.15a.1.1 0 01-.1-.04zm1.66-.06c-.11-.28-1.17-1.62-.72-1.71a.12.12 0 01.13.12 2.17 2.17 0 00.19.44c.12.27.82 1.21.55 1.21a.37.37 0 01-.19-.06zm.58-.74a.25.25 0 01.26-.23.25.25 0 01.25.23.24.24 0 01-.26.22.24.24 0 01-.29-.22zm.59 1.91a.25.25 0 01.26-.22.23.23 0 01.25.23.24.24 0 01-.25.22.25.25 0 01-.26-.23zm2.24.29a42.22 42.22 0 01-2-3.76.12.12 0 01.07-.15.16.16 0 01.17.06c.36.81.77 1.61 1.2 2.39 0 .17 1 1.51.7 1.51a.26.26 0 01-.14-.05zm1.47-.43c-.58-.92-1.1-1.86-1.58-2.82a.11.11 0 01.07-.15.14.14 0 01.16.06c.33.64.64 1.25 1 1.86l.57.94a.1.1 0 010 .15h-.07a.17.17 0 01-.15-.04zm.47-1.18a6.44 6.44 0 01-.24-.61.1.1 0 01.09-.13.13.13 0 01.15.07 5.89 5.89 0 00.24.58c0 .09 0 .16-.13.16a.16.16 0 01-.09-.07zm2.58.77c-.06-.18-1.23-2.26-.55-1.82.23.59.5 1.16.78 1.73a.12.12 0 01-.12.16.11.11 0 01-.09-.07zm2.33 1a12.11 12.11 0 01-1-2.48.12.12 0 01.11-.12c.07 0 .14 0 .14.09a3.58 3.58 0 00.2.73c.23.57.49 1.13.75 1.69 0 .09 0 .16-.13.16a.12.12 0 01-.05-.03zm.88-2a.22.22 0 01.23-.2.21.21 0 110 .41.21.21 0 01-.21-.2zm1.4.29a.12.12 0 01.13-.12.12.12 0 01.12.12.12.12 0 01-.12.11.12.12 0 01-.11-.1zm1.39-1.06a.13.13 0 11.13.11.12.12 0 01-.11-.1zm7.77 24.89l.69-1.22c.17-.3.34-.6.52-.89a.15.15 0 01.18 0 .1.1 0 010 .15c-.22.36-.42.73-.63 1.09a.93.93 0 00-.33.21 1.1 1.1 0 00-.37.74zm1.59-.89c.16-.42.32-.85.47-1.27a.12.12 0 01.15-.08.11.11 0 01.09.14c-.16.46-.32.92-.5 1.37a1 1 0 00-.19-.15zm.59.81l.15-.34.56-1.41a.12.12 0 01.15-.08.11.11 0 01.09.14q-.36.93-.75 1.86h-.13a1.34 1.34 0 00-.07-.16zm1.45.79c.23-.43.44-.85.66-1.28l.76-1.5a.16.16 0 01.17-.06c.06 0 .1.1.07.15-.26.49-.51 1-.76 1.48s-.5 1-.76 1.48a.09.09 0 01-.08.06.77.77 0 00-.04-.32zm1.24.72a.11.11 0 01-.11-.12c.32-1.32.6-2.63.85-4 .58-.64-.17 1.91-.17 2.11-.13.63-.28 1.25-.43 1.88a.12.12 0 01-.12.09zm2.4-2.39c.21-.63.4-1.28.6-1.91a.13.13 0 01.16-.08.11.11 0 01.08.14c-.2.64-.39 1.28-.59 1.92-.15.42-.28.85-.43 1.27l-.33.18c.21-.49.36-1 .53-1.51zm1 .12q.42-1.82.87-3.63a.12.12 0 01.15-.08.11.11 0 01.09.14c-.2.81-.39 1.61-.58 2.42l-.39 1.62-.3.19c.07-.21.12-.39.18-.65zm0 0zm2.17-4c0-.14.29-.09.24.06-.37 1.21-.71 2.43-1.1 3.63l-.34.24c.45-1.3.81-2.66 1.22-3.92zm-.86 3.69h-.06zm2.47-5.74c0-.14.27-.11.25 0-.31 1.48-.58 3-.94 4.43l-.36.28c.52-1.51.7-3.12 1.07-4.7zm-.18 3.64c.44-1.32 1.11-2.8 1.61-4.18a.14.14 0 01.16-.07.11.11 0 01.09.13c-.27.68-.53 1.35-.79 2s-.47 1.3-.77 1.93c-.05.07-.12.19-.22.19zm1.82-2.89c.19-.82.39-1.63.58-2.45a.12.12 0 01.14-.09c.07 0 .13.06.11.12-.19.83-.39 1.65-.58 2.46-.16.65-.31 1.3-.48 2l-.33.28c.22-.75.39-1.55.58-2.31zm1.22-.94c.16-.81.33-1.62.49-2.42a.14.14 0 01.15-.1.12.12 0 01.11.13c-.17.81-.34 1.61-.5 2.42-.12.58-.23 1.17-.35 1.75h-.05l-.26.22c.16-.62.29-1.31.43-1.99zm1.42-4.79a.12.12 0 01.14-.1c.24.08 0 .39 0 .56a36.9 36.9 0 00-.29 3.93l-.26.14a36.26 36.26 0 01.43-4.52zm.5 4.3h-.06a10.94 10.94 0 00.09-3.33c-.15 0-.08-.3.07-.3s.28.92.27 1.88a5.78 5.78 0 01-.21 1.8zm1.47.33a.12.12 0 01-.11-.13c.34-1.66.7-3.33 1.06-5a.12.12 0 01.14-.09.11.11 0 01.11.12c-.36 1.67-.72 3.33-1 5a.13.13 0 01-.13.1zm-29.42 7.61a.12.12 0 01-.09-.14 4.54 4.54 0 00.12-.53.13.13 0 01.13-.11c.19 0 .11.22.09.32s0 .46-.23.46zm1.21-.68c.09-.17.41 0 .32.13a1.82 1.82 0 00-.15.27l-.2.1a3.28 3.28 0 00-.38.27zm1.48-.06a.13.13 0 01.17 0 .11.11 0 010 .15h-.32a1.71 1.71 0 01.15-.15zm.43.13a.59.59 0 000-.08q.26-.49.48-1a.14.14 0 01.17-.06.11.11 0 01.06.15c-.15.34-.32.68-.49 1zm1.33.45c.31-.71.62-1.43.92-2.15a.13.13 0 01.16-.06.11.11 0 01.07.15c-.3.71-.59 1.41-.9 2.12l-.06.13a1.71 1.71 0 00-.19-.19zm.6.92c.25-.44.47-.89.71-1.34l.74-1.36c.07-.13.3 0 .24.09-.51.91-1 1.84-1.47 2.75zm2.06-1.41l.64-1.23a.13.13 0 01.17-.05.1.1 0 01.06.14c-.23.45-.46.9-.7 1.35-.14.26-.27.52-.42.77l-.36.14c.22-.41.41-.74.61-1.12zm3.59-1.79a.13.13 0 01.17 0 .1.1 0 01.07.14l-1.19 2.08h-.32c.43-.72.87-1.47 1.27-2.22zm.34 2l1.7-2.2.54-.69a.14.14 0 01.18 0 .11.11 0 010 .16l-1.43 1.84a.91.91 0 00-.44.24 1.1 1.1 0 00-.37.74zm2.18-.38a1.27 1.27 0 00-.18-.27c.15-.22.31-.44.47-.65a.31.31 0 01.4-.09.25.25 0 01.1.35l-.69 1c-.02-.1-.02-.19-.1-.29zM21.5 11.51c-1.12-.22-.09-1.85.79-1.62.29 0 .43.52.08.58a.22.22 0 01-.26-.19.78.78 0 00-.56.52c0 .1-.11.3.06.29a.69.69 0 00.25 0 .44.44 0 01.32 0c.31.34-.21.42-.54.41zm-.78-2.45c-.86-.32-.58-1.4.14-1.72.3-.13.71 0 .71.35a1.32 1.32 0 01-.33.6c-.11.18-.31.36-.54.22a.4.4 0 00.34.23c.14 0 .35-.06.4.1s-.23.26-.46.26a.89.89 0 01-.26-.04zm6.2 2.09c-.82-.25-.05-1.25.52-1.38a.5.5 0 01.6.68c.07.27-.37.41-.57.55a1 1 0 01-.48.16zm.57-1c-.21 0-.83.65-.46.76a1.42 1.42 0 00.72-.37c-.23 0 0-.39-.23-.39zm-3-2.77c.41-.57 1.68-1 2-.12.15.3-.39.49-.53.19 0-.09 0-.18-.14-.23-.25 0-.47.15-.68.24a.31.31 0 00-.18.37c.06.1.21.1.32.1.63-.08 1.24-.25 1.86-.37.13 0 .38-.09.39.09a.13.13 0 01-.14.12c-.77.12-1.48.48-2.25.56a.63.63 0 01-.64-.97zm6.86-.71a.69.69 0 01-.36-1.25c.48-.55 1.61-.58 1.59.28 0 .29-.51.29-.51 0a.32.32 0 000-.17c-.26-.27-.79.17-.87.4-.19.73.82.27 1.16.14.48.2-.67.61-.95.61zM26.7 5.36a.61.61 0 01-.47-.71c.1-.51.88-.69 1.32-.4.24.14 0 .47-.24.31a.44.44 0 00-.17-.07c-.24-.06-.55.09-.52.32s.3.25.54.23h.21a.15.15 0 01.18.15.13.13 0 01-.16.14h-.55zm-4.45.07a.31.31 0 01-.23-.51 1.11 1.11 0 011.43-.26c.17.13.41.47.13.6s-.27-.24-.45-.35a.77.77 0 00-.84.13c-.13.17 0 .16.08.15s.22 0 .22.1-.09.12-.12.12h-.18zm7.17 3.83A.67.67 0 0129.57 8c.42 0 .86.43.73.79.31-.06.64-.57.93-.32a.19.19 0 010 .28 3.43 3.43 0 01-1.46.61 1.67 1.67 0 01-.35-.1zm.35-.37c-.14-.06-.16-.19-.22-.3-.11.12.07.3.22.3zm-.65-2.84c-.42-.07-.26-.49-.16-.73-.32-.55.65-.63.61-.05a7 7 0 00.9-.22.12.12 0 110 .23c-.31.07-.61.23-.93.27 0 .22-.08.5-.37.5zm5.5 2.63c.2-.1.56-.22.58.08a.22.22 0 01-.21.2 7.69 7.69 0 01-1.92.62c-1.76-.52 1.3-2.49 1.55-.9zm-.79-.06c-.29.08-.65.2-.74.47 0 .05.09 0 .14 0a3.88 3.88 0 00.76-.21c-.06-.09 0-.3-.14-.3zm.88-2.32c-1-.23 0-1.28.41-.34a1 1 0 00.35-.3c-.2-.18.2-.3.25-.08 0 .39-.59.74-1 .74zm-3.07-1.73c-.22 0-.4-.24-.29-.42s.52 0 .43.18h.12c.15-.05.25.16.1.21a1.13 1.13 0 01-.31.06zM22.92 8c-.41-.49.73-.85.7-.22.14.1 0 .31-.14.29h-.29a.53.53 0 01-.27-.07zm-6.6 1c-1-.35.33-2.14 1.12-1.52.25.17.39.65 0 .72s-.32-.17-.38-.35c-.28.06-.84.66-.56.87.13 0 .32 0 .33.15s-.09.12-.17.11a1.6 1.6 0 01-.23 0zM.1 21.76a.11.11 0 01-.1-.13c0-.38.07-.76.13-1.14A27.76 27.76 0 011 16.06a16.71 16.71 0 017.5-9.34c.21-.06.63-.37.79-.18s-.44.23-.59.34a16.37 16.37 0 00-7.14 8.35A25.27 25.27 0 00.31 21c0 .22 0 .43-.06.65a.13.13 0 01-.13.09zm2.73 1.59A13.94 13.94 0 012.04 18a15.69 15.69 0 013.14-7.93.12.12 0 01.17 0c.19.16-.19.39-.25.55a13.89 13.89 0 00-2.68 9.94 22.25 22.25 0 00.68 2.79c0 .09-.05.14-.13.14a.1.1 0 01-.14-.14zm1.58.24a18.1 18.1 0 01.2-13c.05-.14.29-.09.25.06a17.76 17.76 0 00-.75 11.12 15.48 15.48 0 00.53 1.76c0 .08 0 .15-.13.15a.1.1 0 01-.07-.09zm2.74-.07c-1.75-3.26-2.19-6.1-.92-9.57.05-.14.29-.08.25.06a10.33 10.33 0 00.62 8.89c0 .2.41.5.23.67h-.07a.13.13 0 01-.08-.05zM4.27 42.21a.12.12 0 01.13-.11c.23 0 .09.32.13.47a9.43 9.43 0 00.43 2.94.73.73 0 00-.18.22 9.35 9.35 0 01-.51-3.52zM6.6 45c0-.06 0-.12.09-.14s.26.39.34.6l-.2.04zm2.19.69l-.12-.29a.12.12 0 01.09-.14.13.13 0 01.16.08c.06.15.11.3.17.44zm4.12 4.76l.29.11h.14l.08.1zm-2.45-4.11a.79.79 0 01.07-.7.14.14 0 01.13.18 3.84 3.84 0 00.16.67zm2.78 1.26v-.48c0-.16.06-.11.13-.11s.12.17.13.25 0 .28 0 .42zm1.47.62h-.09l-.21-1.27c0-.06 0-.11.11-.12a.12.12 0 01.14.1l.24 1.41zm-3.09 2.68l-.29-.05a.13.13 0 000-.06l.55.15h.07zm-5.07-5.35a6.62 6.62 0 01-.46-2.44c0-.14.26-.15.26 0v.23a6.57 6.57 0 00.48 2.21l-.12.05zm6.28 1.88c-.18-.4-.35-.81-.52-1.21 0-.13.18-.22.24-.09.2.48.4 1 .62 1.43zm5.92.83a.11.11 0 01.07-.15.14.14 0 01.17.06c.14.28.3.56.44.84a.84.84 0 00.09.43h-.12zm.41 3.14l.09.05a1.4 1.4 0 00.09.17zm-1.27-2a9.21 9.21 0 01-.95-3.21c0-.19.31-.11.25.07a9.21 9.21 0 001 3.21h-.11zm.59.06s0-.12.07-.15.18.06.23.17zm1.35-1.33c0-.16.32-.09.24.06a.54.54 0 00.07.13l-.2.08c-.06-.09-.11-.18-.11-.27zM23 49.59zm-1-1.39l-.1-.2a.11.11 0 01.07-.15.13.13 0 01.16.06c.07.13.14.26.2.39a2.3 2.3 0 00-.34-.1zm6 3.72h-.2zm-2.54-4.27a.12.12 0 01.13.12 4 4 0 00.46 1.64h-.3a2 2 0 01-.35-1.76zm6.33 4.57zm-23-.34a.1.1 0 01-.05-.15c.08-.12.24 0 .33 0a20.4 20.4 0 003.2 1.08c4.89 1.12 10 2.08 15.09 1.5.89.34-2.54.43-2.73.43-5.44-.2-10.99-.84-15.91-2.86zm18.29 2.94h-.81a70.69 70.69 0 01-14.13-2.26.11.11 0 11.06-.21c4.92 1.12 9.89 2.26 15 2.26a.11.11 0 01.12.11.12.12 0 01-.13.11zm-2.26.56a46.48 46.48 0 01-10.63-1.75c-.7-.18-1.39-.38-2.08-.57a.13.13 0 01-.09-.14.14.14 0 01.16-.08c2.1.59 4.22 1.19 6.37 1.58a34.88 34.88 0 008.52.69c.87-.1 1.73-.24 2.59-.37a.11.11 0 110 .22 25.44 25.44 0 01-4.18.44zm-.86.18a29.75 29.75 0 01-8.66-1.37.12.12 0 11.07-.22c5.3 1.73 11.1 1.6 16.62.92a.11.11 0 110 .22 53.33 53.33 0 01-7.37.46zm1.59-.35a43.43 43.43 0 01-9-1.13c-.53-.12-1.06-.25-1.58-.4a.1.1 0 01-.09-.13.12.12 0 01.15-.08c.56.15 1.12.29 1.69.42A43.09 43.09 0 0024.94 55a27.8 27.8 0 007.15-.83.12.12 0 01.15.08.1.1 0 01-.09.13l-1 .2a27 27 0 01-5.37.67zM20.11 55c-4.31-.92-11.73-2.33-14-6-.06-.13.17-.22.24-.09 2 3.09 7.45 4.31 11.1 5.26.92.21 1.85.38 2.78.58a.11.11 0 010 .22zm-1.67-.5c-3.61-.5-10.72-3.72-12.99-6.2-.1-.11.1-.25.2-.14 1.24 1.45 3.14 2.27 4.85 3.21a38.25 38.25 0 005.55 2.33 16.73 16.73 0 002.43.54.12.12 0 010 .23zm-3.84-1.22a80.85 80.85 0 01-8.9-4.8c-.6-.44-1.2-.88-1.78-1.35a.11.11 0 010-.16.14.14 0 01.18 0c.53.42 1.06.81 1.61 1.22a40.08 40.08 0 005.31 3l3.71 1.86a.11.11 0 01-.06.21zm13.23 1.87c-1.21 0-2.43 0-3.64-.12a.12.12 0 01-.11-.13c0-.07.08-.1.15-.1l.75.06a49.41 49.41 0 007.4-.17c1.53-.21 3-.5 4.53-.81.15 0 .23.19.06.22a40.4 40.4 0 01-9 1zM8.83 33a.12.12 0 010-.21 1 1 0 01-.18-.28.45.45 0 010-.11c-.12-.09 0-.2.08-.29a.38.38 0 01.23-.11 25.93 25.93 0 012.79.72c.08-.09.24-.07.36-.05a6 6 0 002.49-.06c-2.1-.08-4.14-.81-6.21-.83a.16.16 0 01-.25 0c.11-.62 3.29.31 3.94.33 1 .16 2 .26 3 .38.64.43-1.79.54-2.07.55a9.2 9.2 0 002.52.37.11.11 0 01.12.11c.06.31-.51.19-.72.24a2 2 0 001.49.16 13.69 13.69 0 012.84-.85.29.29 0 01.35.18.26.26 0 01-.2.31 29.75 29.75 0 00-3 .92c-.15.27-.55.26-.88.26h-.16A13.74 13.74 0 018.83 33zm3.66 1l-.19-.16h-.26a2.72 2.72 0 00.46.16zm1.23 0h.11-.39a1 1 0 00.29-.08zm-2.19-.17a.6.6 0 01-.08-.08h-.32zm.09-.33h.29l-.08-.09h-.28zm-.61-.09h.19a.3.3 0 010-.08c-.4-.07-.83-.12-1.21-.18a5.39 5.39 0 001.03.18zm-1.52-.54h.19a1.8 1.8 0 00-.35-.12zm.27-.21h-.3zm26.26.78a.23.23 0 01-.14-.39c.1-.08.25 0 .37-.07-3.41-.73 5.34-1.5 5.88-1.55.37-.16.7-.32 1.06-.49a.31.31 0 01.39.09.25.25 0 01-.06.31c1-.1 1.74.45.46.87 1.27.72-2 1-2.47 1.09a10.68 10.68 0 01-2.59 0 7.15 7.15 0 00-1.31.09 11.52 11.52 0 01-1.17.09zm6.82-1a10 10 0 01-2.8.47 5.66 5.66 0 00.58 0 13.89 13.89 0 002.79-.46l-.42-.07zm-6.33.12h.15zm5.75-.65h.08a2.83 2.83 0 001.55-.19h-.45a2.71 2.71 0 00-1.17.16zm52.29-13.57c0 2.39-2.87 4.78-4.45 5.74v.05l-.19.24c-.53 0-.62.33-1 .47l.09.1-.17.06a7.65 7.65 0 00-1 .38l.05.14a.5.5 0 01-.38.1 18.78 18.78 0 01-2.49 1.19 8.06 8.06 0 001.58.34 5.48 5.48 0 014.11 5.35 9.5 9.5 0 01-2 5.26c-.24.15-.48.53-.76.77-.48.76-4.16 4-6.89 4.4a8.2 8.2 0 01-.87.38 3.12 3.12 0 00-.57.14v.05a.8.8 0 00-.47-.1c-.24 0-.44-.09-.67-.09h-.2c-1.44-.31-1.79-3.45-1.79-4.7.14 0 .19-.09.19-.14v-.24a1.42 1.42 0 01.34-.24c2-2 5.45-3.87 8.27-3.87a3.16 3.16 0 011.15.19l.19.24c.19.24.33.19.57.48h-.24l.15.28a.76.76 0 00-.34 0h.19-.28v.1h.16v.09h-.14a.46.46 0 01-.29.1c-2.53 0-7 2.63-8.41 4.68v.39h.09a2.74 2.74 0 01.39-.67v.14a6.92 6.92 0 00-.34.62h.81c3.64-.19 9.9-5.11 9.9-8.6 0-2.68-3.39-3.16-5.4-3.16a10.6 10.6 0 00-2.77.29c-.24.09-.39.33-.58.33s-.38-.05-.52-.05h-.15l-.14-.09c-.86-1.29-.43-.48-.53-1.72a.91.91 0 00-.24.33 18.56 18.56 0 01-.9 2.73c-.67 2.39-1.63 5.16-1.63 7.65 0 .52.19 1 .19 1.53h-.19a.35.35 0 00.29.33l-.1.1v.09c-.29-.09-.33-.19-.62-.19-1 0-1.63-1.33-1.67-2-.34-2.06-.19-3.73 1-7.56.38-1.38 4.78-13.14 4.73-13.24l.19-.24c.34-.14.53-.43 1-.43a1.47 1.47 0 011.15 1c0 1.1-2.35 7.22-2.87 8.84h.28c.43 0 .82-.24 1.3-.24 2.1-1.1 12-5.78 12-8.46 0-2.29-3.82-3.06-5.54-3.06a19.17 19.17 0 00-12.72 4.49h-.17c-.48-.19-.77-1.05-.77-1.57s.29-.63.43-.91c2.54-2.58 7.75-4.54 12.29-4.54 3.49-.04 8.37 1.59 8.37 5.93zm15.28 24.24v1.63c0 .09-.15.14-.24.14s-.43.67-.67.67c-.57 0-.77-.72-.91-1.15 0 0 0-.19-.14-.14v.28h-.14a9.05 9.05 0 01-.29-3.77c.29-6.12 2.44-13.68 3.73-18-.72 1.39-1.63 3-2.1 4.11-1.8 3.65-5.82 12.36-8.24 14.94a2.88 2.88 0 01-2 1c-2.87 0-3.39-4.07-3.3-6a41.54 41.54 0 011.3-7.86c1.53-6.36 5.16-14.58 7.26-14.58.39 0 1.72.38 1.68.91a1.89 1.89 0 01-.43.86c-1.87 1.19-5 10.18-5.74 14-.38 2-1.82 8.55-.86 10.28a.19.19 0 00.14 0c1.68 0 8.08-17.06 14.39-25.14l.34-.1h.19c.52 0 .52-.29.67-.29a1.06 1.06 0 011.19 1.2c0 .24-.67 2.29-.76 2.77-.67 2-1.15 4.07-1.68 6.12a11.22 11.22 0 00-.57 2 84.81 84.81 0 00-2.82 16.12zm11.4-9.27a4.91 4.91 0 00-.34 1.48c2.06 1.67 10.9 5.26 13.1 5.26a2.27 2.27 0 001.25-.43c.47.24.47.57.62 1.1l-.19.14V41a4.73 4.73 0 01-1.62.19c-.1 0-.34 0-.43.1a6.42 6.42 0 001.34.09l-.19.24h-.2c-.38 0-.81.1-1.14.1-.53 0-1.06-.1-1.53-.1-2 0-7.75-2.53-9.9-3.39-.57-.29-1.1-.62-1.58-.81a26.24 26.24 0 00-.38 5.4h-.19v.19h-.38v.28h-.1c-.05 0-.19-.09-.24-.09l-.05.14c-1.72-.81-1.72-3.54-1.72-5.26 0-.91.2-1.62.2-2.44a.72.72 0 00-.15-.33l-.14-.29a2.68 2.68 0 01-.72-1.24 1.42 1.42 0 010-.48c0-1.43 1-1.58 1.92-2 1.05-4.83 3.25-9.47 4.68-14.73a13.87 13.87 0 00-4.11 1.72 1.08 1.08 0 01-.53.1c-.76 0-1-1.1-1-1.72 0-.34.19-.67 0-1a.53.53 0 01.29-.15 1.1 1.1 0 00.38.05 27.79 27.79 0 019.56-2.39c.33 0 .67-.05 1-.05 4.31 0 10.19 1.72 10.19 6.69-.01 4.4-9.58 10.66-17.7 13.49zm.67-3.06c4.2-1.87 14.63-7.8 14.63-10.86 0-2-3.4-3.72-7.75-3.72a8.52 8.52 0 00-2.72.47c0 .05-.15.1-.15.24-.38 3.11-2.53 8.18-3.34 11.14-.24.91-.48 1.77-.77 2.68zm24.93 19.5a9.63 9.63 0 01-1.2 0c-.91 0-1.29-.57-1.77-1.24l-.19-.1c-.28-.86-.33-.38-.95-.86.05 0 .24-.19.19-.24l.05-.14c1.34-4.11 6.65-10.76 12.91-14.25a50.8 50.8 0 002.2-8.84l-.1-.05s-.09-.1-.14-.1l-.91.58c-3.63 3.15-10.42 12.86-14.72 12.86-2.2 0-2.92-2.06-2.92-4 0-7.6 6.84-16.44 12.81-20.94a16.31 16.31 0 013.88-1.72c1.62 0 3.44 1.29 4.82 1.91a2.31 2.31 0 011.15 1.68c.05.38 0 1 0 1.53a2.45 2.45 0 01-.19.86 1 1 0 01-.48.19 1.65 1.65 0 01-1.29-1c-.67-1-1.19-1.48-1.77-2.48a1.05 1.05 0 00-.76-.24c-6.41 0-15.63 15.49-15.35 20.74 0 .24 0 1.1.34 1.3l.33.14c1.2-.38 6.6-6.36 6.6-6.36 2.06-2.2 5.79-5.83 7.41-6.69a.9.9 0 01.48-.15 2.73 2.73 0 01.57 0 2.66 2.66 0 012.55 2.86 22 22 0 01-.71 5.49l-.05.05a24 24 0 014.64-1.38c.19.09 0 .67.24.67 0 .09-.29.19-.39.33l-.28.38c-.1.15-.1.34-.19.43a14 14 0 00-4.81 2.48c-.63 2.1-4.35 12-10.42 15.63a11.33 11.33 0 00-1.58.67zm-.72-3.15l.05.19h.24c.91 0 3.25-2.35 3.87-3.11a34.26 34.26 0 004.4-6.93l.05-.24h-.05c-3.11 2.73-5.88 5.16-8.13 8.65v.19a14.51 14.51 0 001.24-1.81.11.11 0 00.1-.1l.19-.24h.14a26.39 26.39 0 00-2.12 3.4z"/><path d="M185.96 16.24c-.19.09-.28.38-.47.48s-.24-.29-.24-.34c-1.1-1.15-4.5-1.43-6.22-1.43a30.2 30.2 0 00-6.21.67c-1.72 4.78-2.92 9.46-3.78 12.24a26.32 26.32 0 016.69-1.06 8.85 8.85 0 014.55 1.06l.19.28h-.1c-.43 0-.33.29-.67.38l-.33.24-1.2.05a43.77 43.77 0 00-10 2 31.51 31.51 0 00-1.39 5.4c0 3.35 1.44 4.45 4 4.45a9.59 9.59 0 001.67-.1 17.64 17.64 0 004.38-1.37 1.08 1.08 0 01-.24.67v.28a.1.1 0 00.09.15c-.29.52-.57.28-.91.86-.71.71-2 .9-2.91 1.38-.81 0-2 .34-2.82.34-4.83 0-6.31-3.16-5.79-7.6a16.6 16.6 0 01.81-3.69c-.42 0-1 .05-1.33.05h-.24c-.1-.19-.29-.33-.34-.52s-.05-.34-.05-.53.48-.91.58-1.24h.29a18.73 18.73 0 002-.53c1.1-3.49 2.63-8.7 3.77-12.43a36.9 36.9 0 01-3.77.86.81.81 0 01-.58-1.1l-.14-1.1a1.28 1.28 0 01.48-.57h.19s-.15.24.19.24h.14a44.81 44.81 0 0111.86-2c2.98-.01 7.09.29 7.85 3.53z"/><path d="M187.97 33.31a5.22 5.22 0 00-.33 1.48c2.06 1.67 10.9 5.26 13.1 5.26a2.21 2.21 0 001.24-.43c.48.24.48.57.62 1.1l-.19.14V41a4.76 4.76 0 01-1.63.19.7.7 0 00-.43.1 6.52 6.52 0 001.34.09l-.19.24h-.19c-.38 0-.81.1-1.15.1-.52 0-1-.1-1.53-.1-2 0-7.74-2.53-9.89-3.39-.58-.29-1.1-.62-1.58-.81a24.91 24.91 0 00-.38 5.4h-.19v.19h-.39v.28h-.09c-.09 0-.19-.09-.24-.09l-.05.14c-1.72-.81-1.72-3.54-1.72-5.26 0-.91.19-1.62.19-2.44a.71.71 0 00-.14-.33l-.14-.29a2.6 2.6 0 01-.72-1.24 1.42 1.42 0 010-.48c0-1.43 1-1.58 1.91-2 1-4.83 3.25-9.47 4.69-14.73a13.76 13.76 0 00-4.06 1.77 1.12 1.12 0 01-.53.1c-.77 0-1-1.1-1-1.72 0-.34.19-.67 0-1a.48.48 0 01.28-.15 1.19 1.19 0 00.39.05 27.79 27.79 0 019.56-2.39c.33 0 .67-.05 1-.05 4.3 0 10.18 1.72 10.18 6.69-.05 4.35-9.61 10.61-17.74 13.44zm.67-3.06c4.21-1.87 14.63-7.8 14.63-10.86 0-2-3.39-3.72-7.74-3.72a8.54 8.54 0 00-2.73.47c0 .05-.14.1-.14.24-.38 3.11-2.53 8.18-3.35 11.14-.24.91-.47 1.77-.76 2.68z"/></svg>